<svg width="43" height="51" viewBox="0 0 43 51" fill="none" xmlns="http://www.w3.org/2000/svg">
<path d="M21.7287 27.2743C20.1094 27.2743 18.5881 26.644 17.4426 25.4995C17.0476 25.1045 17.0486 24.4651 17.4426 24.0711C17.8375 23.6772 18.477 23.6772 18.8709 24.0711C19.6336 24.8338 20.6488 25.255 21.7277 25.255C22.8065 25.255 23.8217 24.8348 24.5844 24.0711C26.1603 22.4953 26.1603 19.9325 24.5844 18.3566C23.8217 17.593 22.8065 17.1727 21.7277 17.1727C20.6488 17.1727 19.6336 17.593 18.8709 18.3566C18.476 18.7516 17.8365 18.7516 17.4426 18.3566C17.0486 17.9617 17.0476 17.3222 17.4426 16.9283C18.5871 15.7838 20.1094 15.1534 21.7287 15.1534C23.348 15.1534 24.8693 15.7838 26.0148 16.9283C28.3776 19.291 28.3776 23.1367 26.0148 25.4995C24.8703 26.644 23.348 27.2743 21.7287 27.2743Z" fill="white" fill-opacity="0.35"/>
<path d="M31.8301 22.2235C31.2725 22.2235 30.82 21.771 30.82 21.2134C30.82 16.1999 26.7419 12.1219 21.7285 12.1219C18.493 12.1219 15.4746 13.8644 13.8523 16.6687C13.5725 17.1515 12.9553 17.3162 12.4724 17.0374C11.9895 16.7575 11.8249 16.1403 12.1037 15.6575C14.0856 12.231 17.7737 10.1026 21.7285 10.1026C27.8551 10.1026 32.8403 15.0877 32.8403 21.2144C32.8403 21.772 32.3877 22.2245 31.8301 22.2245V22.2235Z" fill="white"/>
<path d="M21.7286 32.3251C17.7738 32.3251 14.0867 30.1967 12.1037 26.7702C11.8239 26.2873 11.9896 25.6691 12.4725 25.3903C12.9553 25.1105 13.5735 25.2762 13.8523 25.759C15.4747 28.5632 18.492 30.3058 21.7276 30.3058C24.9631 30.3058 27.9815 28.5632 29.6038 25.759C29.8826 25.2762 30.5008 25.1105 30.9837 25.3903C31.4665 25.6701 31.6312 26.2873 31.3524 26.7702C29.3704 30.1967 25.6833 32.3251 21.7286 32.3251Z" fill="white"/>
<path d="M9.73495 50.003C9.42887 50.003 9.12683 49.8646 8.92782 49.6009C4.83768 44.1834 2.0163 38.1558 0.766728 32.1726C-0.645478 25.4116 -0.105041 18.8072 2.37289 12.5421C2.57795 12.0229 3.16485 11.7694 3.68408 11.9744C4.2033 12.1795 4.45685 12.7664 4.25179 13.2856C1.92235 19.1759 1.41525 25.3924 2.74463 31.7605C3.93359 37.4537 6.62971 43.2026 10.5411 48.3847C10.8774 48.8302 10.7885 49.4635 10.3431 49.7999C10.1612 49.9373 9.94708 50.004 9.73495 50.004V50.003Z" fill="white" fill-opacity="0.65"/>
<path d="M16.6788 50.003C16.406 50.003 16.1353 49.8939 15.9363 49.6777C12.1805 45.6058 9.24602 40.953 7.45096 36.2224C5.21648 30.3351 4.68918 24.3277 5.88218 18.3678C7.45197 10.5269 13.9685 5.05078 21.7286 5.05078C25.7116 5.05078 29.5381 6.51248 32.504 9.16618C32.9202 9.53792 32.9555 10.1764 32.5828 10.5926C32.211 11.0087 31.5726 11.0441 31.1564 10.6713C28.5623 8.34895 25.2136 7.07009 21.7286 7.07009C18.4597 7.07009 15.2898 8.2146 12.8038 10.2925C10.2552 12.423 8.54598 15.3524 7.86311 18.7648C5.11749 32.4767 12.6725 43.1602 17.4212 48.3079C17.799 48.7181 17.7738 49.3575 17.3637 49.7353C17.1697 49.9141 16.9242 50.003 16.6788 50.003Z" fill="white"/>
<path d="M24.1935 50.0029C23.9662 50.0029 23.7369 49.9262 23.548 49.7696C21.664 48.2038 17.0344 44.0501 14.7282 39.3104C14.4838 38.8083 14.6929 38.2043 15.1949 37.9598C15.697 37.7153 16.3011 37.9244 16.5455 38.4265C17.2567 39.8872 19.4881 43.7662 24.841 48.216C25.2703 48.5725 25.3289 49.21 24.9723 49.6383C24.7723 49.8787 24.4844 50.0029 24.1955 50.0029H24.1935Z" fill="white" fill-opacity="0.35"/>
<path d="M34.8558 14.6473C34.5073 14.6473 34.1679 14.4664 33.98 14.1432C32.29 11.2218 29.6141 8.99644 26.4432 7.87617C25.9169 7.6903 25.6411 7.1135 25.827 6.58721C26.0128 6.06091 26.5896 5.78514 27.1159 5.97101C30.7394 7.25189 33.7982 9.79447 35.7286 13.132C36.0084 13.6149 35.8427 14.2331 35.3599 14.5119C35.2003 14.6038 35.0265 14.6483 34.8548 14.6483L34.8558 14.6473Z" fill="white"/>
<path d="M11.6271 22.2236C11.0695 22.2236 10.617 21.7711 10.617 21.2135C10.617 19.2598 11.1311 17.3385 12.1039 15.6566C12.3837 15.1737 13.0009 15.0091 13.4838 15.2879C13.9667 15.5677 14.1313 16.1849 13.8525 16.6677C13.0575 18.0426 12.6373 19.6144 12.6373 21.2125C12.6373 21.7701 12.1847 22.2236 11.6271 22.2236Z" fill="white"/>
<path d="M24.245 42.3702C23.753 42.3702 23.3227 42.0106 23.247 41.5096C23.1641 40.958 23.5449 40.4438 24.0965 40.361C27.922 39.7882 31.6384 38.0174 34.5618 35.3738C37.5569 32.6656 39.5924 29.2361 40.447 25.4571C40.7621 24.0641 40.9217 22.6367 40.9217 21.2144C40.9217 10.6309 32.3121 2.02133 21.7287 2.02133C17.0476 2.02133 12.5392 3.72548 9.03396 6.8196C8.61576 7.18831 7.97733 7.14891 7.60862 6.73071C7.23992 6.3125 7.27931 5.67408 7.69752 5.30537C11.5715 1.88395 16.5556 0 21.7287 0C33.4253 0 42.9421 9.51673 42.9421 21.2134C42.9421 22.7852 42.7653 24.3631 42.4178 25.9016C41.4713 30.0887 39.2227 33.8818 35.9174 36.8719C32.6556 39.8216 28.6715 41.7187 24.3955 42.3591C24.345 42.3672 24.2945 42.3702 24.245 42.3702Z" fill="white" fill-opacity="0.65"/>
<path d="M28.4403 46.7776C27.9837 46.7776 27.5695 46.4664 27.4584 46.0028C27.3281 45.4603 27.6624 44.9148 28.2049 44.7845C31.0142 44.1107 33.7163 42.7804 36.0175 40.9368C36.4529 40.5883 37.0883 40.658 37.4378 41.0934C37.7863 41.5288 37.7166 42.1642 37.2812 42.5137C34.7487 44.5421 31.7738 46.0068 28.6766 46.7493C28.5979 46.7685 28.5181 46.7776 28.4403 46.7776Z" fill="white" fill-opacity="0.35"/>
<path d="M21.7287 37.376C18.5326 37.376 15.4415 36.4446 12.7908 34.6819C12.3261 34.3727 12.1999 33.7464 12.509 33.2818C12.8181 32.8171 13.4444 32.6908 13.9091 32.9999C16.2274 34.5414 18.9316 35.3566 21.7287 35.3566C29.5272 35.3566 35.871 29.0128 35.871 21.2144C35.871 20.6568 36.3235 20.2042 36.8811 20.2042C37.4388 20.2042 37.8913 20.6568 37.8913 21.2144C37.8913 30.126 30.6404 37.376 21.7287 37.376Z" fill="white" fill-opacity="0.35"/>
</svg>
